<?xml version="1.0" encoding="UTF-8" standalone="no"?>
<!-- Created with Inkscape (http://www.inkscape.org/) -->

<svg
   xmlns:dc="http://purl.org/dc/elements/1.1/"
   xmlns:cc="http://creativecommons.org/ns#"
   xmlns:rdf="http://www.w3.org/1999/02/22-rdf-syntax-ns#"
   xmlns:svg="http://www.w3.org/2000/svg"
   xmlns="http://www.w3.org/2000/svg"
   xmlns:sodipodi="http://sodipodi.sourceforge.net/DTD/sodipodi-0.dtd"
   xmlns:inkscape="http://www.inkscape.org/namespaces/inkscape"
   id="svg2"
   version="1.1"
   inkscape:version="0.47 r22583"
   width="400.49893"
   height="564.63184"
   sodipodi:docname="תג יחידה 460.svg">
  <metadata
     id="metadata8">
    <rdf:RDF>
      <cc:Work
         rdf:about="">
        <dc:format>image/svg+xml</dc:format>
        <dc:type
           rdf:resource="http://purl.org/dc/dcmitype/StillImage" />
        <dc:title></dc:title>
      </cc:Work>
    </rdf:RDF>
  </metadata>
  <defs
     id="defs6">
    <inkscape:perspective
       sodipodi:type="inkscape:persp3d"
       inkscape:vp_x="0 : 0.5 : 1"
       inkscape:vp_y="0 : 1000 : 0"
       inkscape:vp_z="1 : 0.5 : 1"
       inkscape:persp3d-origin="0.5 : 0.33333333 : 1"
       id="perspective10" />
    <inkscape:perspective
       id="perspective3304"
       inkscape:persp3d-origin="0.5 : 0.33333333 : 1"
       inkscape:vp_z="1 : 0.5 : 1"
       inkscape:vp_y="0 : 1000 : 0"
       inkscape:vp_x="0 : 0.5 : 1"
       sodipodi:type="inkscape:persp3d" />
  </defs>
  <sodipodi:namedview
     pagecolor="#ffffff"
     bordercolor="#666666"
     borderopacity="1"
     objecttolerance="10"
     gridtolerance="10"
     guidetolerance="10"
     inkscape:pageopacity="0"
     inkscape:pageshadow="2"
     inkscape:window-width="1280"
     inkscape:window-height="660"
     id="namedview4"
     showgrid="false"
     inkscape:zoom="0.71040547"
     inkscape:cx="-27.25585"
     inkscape:cy="164.17197"
     inkscape:window-x="-4"
     inkscape:window-y="-4"
     inkscape:window-maximized="1"
     inkscape:current-layer="svg2"
     inkscape:snap-nodes="false" />
  <g
     id="g3848"
     transform="translate(-475.11212,5.4285852)">
    <g
       transform="translate(70.382342,2.8152935)"
       id="g3841">
      <path
         style="fill:#f1a648;fill-opacity:1;fill-rule:evenodd;stroke:none"
         d="m 792.29694,252.6403 -27.39092,125.62653 -58.35917,94.65829 -52.02474,51.02125 -50.6171,25.6836 -47.31597,-26.29425 -59.98478,-56.55867 -52.40254,-84.26058 -33.01506,-129.10702 381.11028,-0.76915 z"
         id="path3838"
         sodipodi:nodetypes="cccccccccc" />
      <g
         id="g3834"
         style="fill:#17553a;fill-opacity:1">
        <path
           sodipodi:nodetypes="ccccc"
           id="path3827"
           d="m 788.05178,180.93737 -0.38589,113.20872 -44.18158,95.86995 -195.5033,-209.1331 240.07077,0.0545 z"
           style="fill:#17553a;fill-opacity:1;fill-rule:evenodd;stroke:none" />
        <path
           style="fill:#17553a;fill-opacity:1;fill-rule:evenodd;stroke:none"
           d="m 417.5893,181.92989 0.38589,107.2818 44.18158,90.85079 195.5033,-198.18419 -240.07077,0.0517 z"
           id="path3832"
           sodipodi:nodetypes="ccccc" />
      </g>
      <rect
         style="fill:#d93105;fill-opacity:1;fill-rule:evenodd;stroke:none"
         id="rect3823"
         width="377.24014"
         height="196.08527"
         x="416.05905"
         y="-7.3625584" />
    </g>
    <g
       id="g3621"
       style="fill:none;stroke:#000000;stroke-width:21.45992088;stroke-miterlimit:4;stroke-opacity:1;stroke-dasharray:none"
       transform="matrix(1.0235821,0,0,1.1200435,496.58879,11.499737)">
      <g
         id="g3623"
         style="fill:none;stroke:#000000;stroke-width:21.45992088;stroke-miterlimit:4;stroke-opacity:1;stroke-dasharray:none">
        <path
           id="path3625"
           style="opacity:0.9;fill:none;stroke:#000000;stroke-width:21.45992088;stroke-miterlimit:4;stroke-opacity:1;stroke-dasharray:none;display:inline"
           d="m 174.65407,478.74447 c 0,0 -184.4117758,-82.76133 -184.4117758,-293.09148 0,-210.330153 0,-190.5094648 0,-190.5094648 l 368.8235658,0 0,190.5094648 c 0,210.33015 -184.41179,293.09148 -184.41179,293.09148 l 0,0 z"
           sodipodi:nodetypes="cccccc" />
      </g>
    </g>
    <g
       transform="translate(485.89058,-3.3610905)"
       id="g3782">
      <g
         id="g3709"
         transform="translate(-10.542271,-99.084753)">
        <path
           sodipodi:nodetypes="cccaccccccccc"
           id="path2818"
           d="m 338.75389,409.55626 -56.48609,0.22962 -1.15729,-18.5798 c 0,0 -53.51842,10.14802 -80.61968,10.25135 -26.57715,0.10139 -79.13902,-9.44993 -79.13902,-9.44993 l -1.65084,18.4202 -56.80492,-0.30513 -9.4539,-58.83726 86.82244,-23.87133 59.57072,4.82031 60.92702,-5.43008 87.03193,27.33089 -9.04037,55.42116 z"
           style="fill:#0d0e0c;fill-opacity:1;stroke:none" />
        <g
           transform="translate(-6.9674963,0.99535662)"
           id="g3690">
          <g
             id="g3663">
            <path
               sodipodi:nodetypes="ccccc"
               id="rect3593"
               d="m 62.230959,362.6886 71.791621,0 0,3.98143 -70.911841,0 -0.87978,-3.98143 z"
               style="fill:#f4ffe9;fill-opacity:1;fill-rule:evenodd;stroke:none" />
            <path
               sodipodi:nodetypes="ccccc"
               id="rect3595"
               d="m 64.694346,376.41314 66.161034,-0.17596 0,3.98143 -65.633167,0 -0.527867,-3.80547 z"
               style="fill:#f4ffe9;fill-opacity:1;fill-rule:evenodd;stroke:none" />
            <path
               sodipodi:nodetypes="ccccc"
               id="rect3597"
               d="m 66.277947,388.55409 61.058313,0 0,3.98142 -60.354489,0.17596 -0.703824,-4.15738 z"
               style="fill:#f4ffe9;fill-opacity:1;fill-rule:evenodd;stroke:none" />
            <path
               sodipodi:nodetypes="ccccc"
               id="rect3599"
               d="m 68.43028,399.81526 59.04107,-0.12442 -0.46566,4.10584 -57.985333,-0.11375 -0.590077,-3.86767 z"
               style="fill:#f4ffe9;fill-opacity:1;fill-rule:evenodd;stroke:none" />
            <path
               sodipodi:nodetypes="ccccc"
               id="rect3601"
               d="m 131.2603,362.72393 5.75357,1.25807 -5.18907,27.52358 -5.04974,-0.90615 4.48524,-27.8755 z"
               style="fill:#f4ffe9;fill-opacity:1;fill-rule:evenodd;stroke:none" />
          </g>
          <path
             style="fill:#f4ffe9;fill-opacity:1;fill-rule:evenodd;stroke:none"
             d="m 131.79139,362.62866 c 0,0 48.75579,8.77088 73.38672,8.79779 25.0883,0.0274 74.76812,-8.79779 74.76812,-8.79779 l 0,6.68637 c 0,0 -49.47429,8.10653 -74.42277,8.09397 -24.71956,-0.0125 -73.73207,-8.09397 -73.73207,-8.09397 l 0,-6.68637 z"
             id="rect3623"
             sodipodi:nodetypes="caccacc" />
          <g
             id="g3682">
            <g
               transform="matrix(-1,0,0,1,415.35797,-0.70382341)"
               id="g3670">
              <path
                 sodipodi:nodetypes="ccccc"
                 id="path3672"
                 d="m 62.230959,362.6886 71.791621,0 0,3.98143 -70.911841,0 -0.87978,-3.98143 z"
                 style="fill:#f4ffe9;fill-opacity:1;fill-rule:evenodd;stroke:none" />
              <path
                 sodipodi:nodetypes="ccccc"
                 id="path3674"
                 d="m 64.694346,376.41314 66.161034,-0.17596 0,3.98143 -65.633167,0 -0.527867,-3.80547 z"
                 style="fill:#f4ffe9;fill-opacity:1;fill-rule:evenodd;stroke:none" />
              <path
                 sodipodi:nodetypes="ccccc"
                 id="path3676"
                 d="m 66.277947,388.55409 61.058313,0 0,3.98142 -60.354489,0.17596 -0.703824,-4.15738 z"
                 style="fill:#f4ffe9;fill-opacity:1;fill-rule:evenodd;stroke:none" />
              <path
                 sodipodi:nodetypes="ccccc"
                 id="path3678"
                 d="m 68.43028,399.81526 59.04107,-0.12442 -0.46566,4.10584 -57.985333,-0.11375 -0.590077,-3.86767 z"
                 style="fill:#f4ffe9;fill-opacity:1;fill-rule:evenodd;stroke:none" />
              <path
                 sodipodi:nodetypes="ccccc"
                 id="path3680"
                 d="m 131.2603,362.72393 5.75357,1.25807 -5.18907,27.52358 -5.04974,-0.90615 4.48524,-27.8755 z"
                 style="fill:#f4ffe9;fill-opacity:1;fill-rule:evenodd;stroke:none" />
            </g>
          </g>
        </g>
        <path
           sodipodi:nodetypes="ccccccccc"
           id="path3706"
           d="m 180.91065,356.18496 0.55131,-14.4958 -55.93351,0.63525 -1.56829,15.18804 -7.52058,1.42231 3.43012,-21.0705 67.98819,0.21433 -0.13138,17.82948 -6.81586,0.27689 z"
           style="fill:#f4ffe9;fill-opacity:1;stroke:none" />
      </g>
      <g
         id="g3773">
        <g
           transform="translate(0.16559643,-0.73934768)"
           id="g3762">
          <path
             style="fill:#ffffff;fill-opacity:1;stroke:none"
             d="m 129.40276,222.5274 122.31486,0 0,6.39867 c 0,0 -40.45769,3.64956 -60.81191,3.65637 -20.58363,0.007 -61.50295,-3.65637 -61.50295,-3.65637 l 0,-6.39867 z"
             id="rect3755"
             sodipodi:nodetypes="cccacc" />
          <path
             style="fill:#0d0e0c;fill-opacity:1;stroke:none"
             d="m 279.50675,203.36879 c 0,19.41267 -37.85469,23.54119 -89.81375,23.54119 -51.95906,0 -81.88527,-6.11496 -81.88527,-25.52764 0,-19.41267 32.66334,-37.96172 84.6224,-37.96172 51.95906,0 87.07662,20.53549 87.07662,39.94817 z"
             id="path3728"
             sodipodi:nodetypes="csssc" />
          <path
             style="fill:#0d0e0c;fill-opacity:1;stroke:none"
             d="m 184.29887,227.11613 c 0,0 -77.72017,0.25953 -84.09015,-14.39767 -4.119579,-9.47909 14.84612,-27.22149 14.84612,-27.22149 l 69.24403,41.61916 z"
             id="path3734"
             sodipodi:nodetypes="cscc" />
          <path
             sodipodi:nodetypes="cscc"
             id="path3737"
             d="m 184.15005,227.103 c 0,0 93.85779,0.61839 100.69947,-13.41733 3.38531,-6.94496 -9.35346,-21.20727 -9.35346,-21.20727 l -91.34601,34.6246 z"
             style="fill:#0d0e0c;fill-opacity:1;stroke:none" />
          <rect
             style="fill:#0d0e0c;fill-opacity:1;stroke:none"
             id="rect3747"
             width="49.76783"
             height="12.939636"
             x="150.79652"
             y="155.97314" />
        </g>
        <path
           transform="matrix(0.84200884,0,0,0.84983659,23.784132,27.453689)"
           d="m 219.97382,196.68555 c 0,9.89496 -8.5785,17.91642 -19.16062,17.91642 -10.58211,0 -19.16061,-8.02146 -19.16061,-17.91642 0,-9.89497 8.5785,-17.91642 19.16061,-17.91642 10.58212,0 19.16062,8.02145 19.16062,17.91642 z"
           sodipodi:ry="17.91642"
           sodipodi:rx="19.160614"
           sodipodi:cy="196.68555"
           sodipodi:cx="200.8132"
           id="path3769"
           style="fill:#000000;fill-opacity:1;fill-rule:evenodd;stroke:#ffffff;stroke-width:11.82153702;stroke-miterlimit:4;stroke-opacity:1;stroke-dasharray:none"
           sodipodi:type="arc" />
      </g>
    </g>
  </g>
</svg>
