<svg width="96" height="96" xmlns="http://www.w3.org/2000/svg" xmlns:xlink="http://www.w3.org/1999/xlink" xml:space="preserve" overflow="hidden"><g transform="translate(-592 -312)"><path d="M612.9 369.6 632.1 350.4 621.4 350.4C624.9 343.6 632 338.9 640.2 338.9 645.5 338.9 650.4 340.9 654.1 344.2L673.6 344.2C667.7 331.6 654.9 323 640.2 323 623.1 323 608.7 334.6 604.5 350.4L593.7 350.4 612.9 369.6Z" fill="#FF6100"/><path d="M686.6 369.6 667.4 350.4 648.2 369.6 659 369.6C655.5 376.4 648.4 381.1 640.2 381.1 634.9 381.1 630 379.1 626.3 375.8L606.7 375.8C612.7 388.4 625.4 397 640.2 397 657.3 397 671.7 385.4 675.9 369.6L686.6 369.6Z" fill="#FF6100"/></g></svg>