<?xml version="1.0" encoding="UTF-8" standalone="no"?>
<!-- Creator: CorelDRAW -->
<svg
   xmlns:dc="http://purl.org/dc/elements/1.1/"
   xmlns:cc="http://creativecommons.org/ns#"
   xmlns:rdf="http://www.w3.org/1999/02/22-rdf-syntax-ns#"
   xmlns:svg="http://www.w3.org/2000/svg"
   xmlns="http://www.w3.org/2000/svg"
   xmlns:sodipodi="http://sodipodi.sourceforge.net/DTD/sodipodi-0.dtd"
   xmlns:inkscape="http://www.inkscape.org/namespaces/inkscape"
   xml:space="preserve"
   width="393.75"
   height="555"
   style="fill-rule:evenodd"
   viewBox="0 0 8.5 11"
   id="svg2"
   sodipodi:version="0.32"
   inkscape:version="0.46"
   sodipodi:docname="7brigade.svg"
   inkscape:output_extension="org.inkscape.output.svg.inkscape"
   version="1.0"><metadata
   id="metadata22"><rdf:RDF><cc:Work
       rdf:about=""><dc:format>image/svg+xml</dc:format><dc:type
         rdf:resource="http://purl.org/dc/dcmitype/StillImage" /></cc:Work></rdf:RDF></metadata><sodipodi:namedview
   inkscape:window-height="988"
   inkscape:window-width="1680"
   inkscape:pageshadow="2"
   inkscape:pageopacity="0.0"
   guidetolerance="10.0"
   gridtolerance="10.0"
   objecttolerance="10.0"
   borderopacity="1.0"
   bordercolor="#666666"
   pagecolor="#ffffff"
   id="base"
   showgrid="false"
   inkscape:zoom="0.46666667"
   inkscape:cx="382.5"
   inkscape:cy="495"
   inkscape:window-x="-8"
   inkscape:window-y="-8"
   inkscape:current-layer="svg2" />
 <defs
   id="defs4"><inkscape:perspective
   sodipodi:type="inkscape:persp3d"
   inkscape:vp_x="0 : 495 : 1"
   inkscape:vp_y="0 : 1000 : 0"
   inkscape:vp_z="765 : 495 : 1"
   inkscape:persp3d-origin="382.5 : 330 : 1"
   id="perspective24" />
  <style
   type="text/css"
   id="style6">
   
    .fil1 {fill:#4C4372}
    .fil0 {fill:#AFDEE6}
    .fil3 {fill:#F2320A}
    .fil4 {fill:#FEE705}
    .fil2 {fill:white}
   
  </style>
 </defs>
 <g
   id="symbol"
   transform="matrix(1.9076678,0,0,1.9076678,-2.2793565,-3.250249)">
  <metadata
   id="CorelCorpID_0Corel-Layer" />
  <path
   id="outer_x0020_shell"
   class="fil0"
   d="M 5.61212,1.49135 L 5.61212,4.27468 C 5.61212,5.89013 4.30359,7.27033 3.42462,7.65801 C 2.545644,7.270321 1.23712,5.89013 1.23712,4.27468 L 1.23712,1.49135 L 5.61213,1.49135 L 5.61212,1.49135 z"
   style="fill:#afdee6" />
  <path
   id="inner_x0020_shell"
   class="fil1"
   d="M 3.42462,7.36739 C 4.43845,6.820532 5.3674,5.35559 5.33712,4.27469 L 5.33712,1.76636 L 3.42462,1.76636 L 1.51212,1.76636 L 1.51212,4.27469 C 1.4818483,5.3556 2.410793,6.82054 3.42462,7.36739 L 3.42462,7.36739 z"
   style="fill:#4c4372" />
  <path
   id="outer_x0020_arrow"
   class="fil2"
   d="M 4.6905,2.8182 L 4.387673,3.389495 C 4.391299,3.117105 4.4757557,2.912802 4.6905,2.8182 z M 4.283291,3.586539 C 4.2656532,3.4920941 4.2613737,3.400122 4.2696611,3.316141 C 3.9648891,3.3357316 3.6849441,3.2746253 3.4246141,3.149771 C 3.0955901,2.962377 2.5192011,2.893751 2.3110941,2.973995 C 2.2701256,2.9955265 2.2950862,3.128845 2.3832831,3.13996 C 2.5474841,3.1708183 3.4105431,3.283948 3.3714371,3.481917 L 2.9541851,3.889645 C 2.5422871,3.511381 1.7704651,3.8392001 1.9465751,3.077102 C 1.9652995,2.9960075 2.2082211,2.820043 2.2842991,2.744783 C 2.4114051,2.619043 2.5160351,2.495177 2.6038661,2.372685 C 2.9105941,2.3037204 3.1845551,2.3166614 3.4246181,2.4143582 C 3.6979371,2.5413932 4.3789531,2.7648622 4.6848781,2.7023742 C 4.7153072,2.6829844 4.7483505,2.6636262 4.7820159,2.6455632 L 4.7955631,2.6200081 C 4.7586773,2.5909727 4.7371497,2.5466301 4.7371497,2.4996891 C 4.7371497,2.4151222 4.8057048,2.3465671 4.8902717,2.3465671 C 4.9748386,2.3465671 5.0433937,2.4151222 5.0433937,2.4996891 C 5.0433937,2.5715041 4.9934843,2.6336691 4.9233697,2.6491931 L 4.2659487,5.0730731 L 4.4367877,5.1482424 L 3.2929777,6.5466524 L 3.4810607,4.7269724 L 3.6448167,4.7909291 L 4.2832967,3.5865391"
   style="fill:#ffffff" />
  <polygon
   id="inner_x0020_arrow"
   class="fil3"
   points="3.42462,6.25697 3.57462,4.94864 3.67977,4.99491 4.74962,2.93197 4.11713,5.18734 4.19962,5.22364 3.42462,6.25697 "
   style="fill:#f2320a" />
  <polygon
   id="star"
   class="fil4"
   points="3.86817,3.74364 3.78192,3.60464 3.9486,3.5979 4.02738,3.45085 4.11656,3.59183 4.2833,3.58654 4.20579,3.73426 4.29374,3.87601 4.12706,3.88275 4.04828,4.02979 3.98414,3.92839 3.56213,4.35906 3.53687,4.33433 3.27834,4.59816 3.24496,4.56547 2.65339,5.16917 2.61604,5.13259 2.20818,5.54881 2.7433,4.78573 2.78242,4.81789 3.24286,4.25828 3.28331,4.29155 3.60419,3.90156 3.68178,3.96535 3.86817,3.74364 "
   style="fill:#fee705" />
  <polygon
   id="rifle_x0020_outline"
   class="fil0"
   points="3.46519,4.88059 3.4381,5.14265 2.57983,4.47344 2.537,4.52846 2.37689,4.40362 2.55689,4.17239 3.46519,4.88059 "
   style="fill:#afdee6" />
  <path
   id="rifle_x0020_inside"
   class="fil1"
   d="M 2.50312,4.39028 L 2.54912,4.4261501 L 2.5861357,4.3785989 L 3.4476437,5.0503189 C 3.4448366,5.0774724 3.4491358,5.1018701 3.4616437,5.1158858 L 3.5907497,5.2165548 C 3.6931357,5.3547678 3.7678477,5.5281808 3.8121237,5.7403068 L 4.0255487,5.4557478 C 3.9460487,5.3201138 3.8726357,5.2257048 3.7986947,5.1789678 L 3.6762257,5.2013024 C 3.6835604,5.1428693 3.6616115,5.0873614 3.6133871,5.0344834 L 3.4615171,4.9160704 C 3.4406628,4.9135704 3.4224738,4.9216925 3.4045289,4.9330743 L 2.5801939,4.2912753 L 2.5031191,4.3902792 L 2.50312,4.39028 z"
   style="fill:#4c4372" />
  <polygon
   id="rifle_x0020_tip"
   class="fil0"
   points="2.24672,4.34357 2.32424,4.40401 2.58723,4.06619 2.50971,4.00575 2.24672,4.34357 "
   style="fill:#afdee6" />
  <polygon
   id="rifle_x0020_bayonet"
   class="fil0"
   points="2.35942,4.1182 1.8049,3.68584 2.2376,4.27468 2.35942,4.1182 "
   style="fill:#afdee6" />
  <path
   id="flag_x0020_top"
   class="fil0"
   d="M 2.2843,2.74478 C 2.642036,2.604201 3.022426,2.627835 3.42462,2.8094769 C 3.727966,2.9472759 4.035065,3.0569059 4.360687,3.0276379 C 4.4307933,2.9036849 4.539234,2.7953619 4.684876,2.7023699 C 4.378955,2.7648581 3.697939,2.5413899 3.424616,2.4143539 C 3.184553,2.316657 2.910592,2.3037159 2.603864,2.3726807 C 2.5160333,2.4951727 2.411403,2.6190387 2.284297,2.7447787 L 2.2843,2.74478 z"
   style="fill:#afdee6" />
  <path
   id="flag_x0020_inside"
   class="fil0"
   d="M 3.37144,3.48192 C 3.4105424,3.283951 2.547487,3.170822 2.383286,3.139963 C 2.2950891,3.1288488 2.270129,2.99553 2.311097,2.973998 C 2.2168529,3.0103366 2.132577,3.194116 2.2371915,3.281022 C 2.3418055,3.3679275 3.1181635,3.543227 3.1628135,3.685786 L 3.3714395,3.48192 L 3.37144,3.48192 z"
   style="fill:#afdee6" />
 </g>
</svg>